<svg id="OBJECTS" xmlns="http://www.w3.org/2000/svg" viewBox="0 0 360.364 319.332"><defs><style>.cls-1{fill:#ffc1ac;}.cls-2{fill:#3d3d47;}.cls-19,.cls-3{fill:#fff;}.cls-4{fill:#001228;}.cls-23,.cls-24,.cls-26,.cls-33,.cls-5{fill:none;}.cls-5{stroke:#fff;stroke-width:1.041px;}.cls-23,.cls-24,.cls-25,.cls-33,.cls-5{stroke-linecap:round;}.cls-19,.cls-26,.cls-5{stroke-miterlimit:10;}.cls-6{fill:#e6eaef;}.cls-7{fill:#d1d6db;}.cls-8{fill:#333;}.cls-9{fill:#f2d0ae;}.cls-10{fill:#ce947f;}.cls-11{fill:#ff738e;}.cls-12{fill:#fc92ac;}.cls-13{fill:#5ec394;}.cls-14{fill:#54af82;}.cls-15{fill:#d7dde6;}.cls-16{fill:#c7ccd3;}.cls-17{fill:#fafbfc;}.cls-18{fill:#f0f2f7;}.cls-19,.cls-26{stroke:#eaeff4;stroke-width:1.877px;}.cls-20{fill:#eaeff4;}.cls-21{fill:#24d5ff;}.cls-22,.cls-25{fill:#007eff;}.cls-23{stroke:#24d5ff;}.cls-23,.cls-24,.cls-25,.cls-33{stroke-linejoin:round;}.cls-23,.cls-24{stroke-width:2.04px;}.cls-24,.cls-25{stroke:#007eff;}.cls-25{stroke-width:1.508px;}.cls-27{fill:#353566;opacity:0.2;}.cls-28{fill:#1b242d;}.cls-29{fill:#f1b762;}.cls-30{fill:#d8b89b;}.cls-31{fill:#fc5197;}.cls-32{fill:#f99450;}.cls-33{stroke:#ff738e;stroke-width:6.57px;}.cls-34{fill:#ffa364;}.cls-35{fill:#00d5ff;}</style></defs><title>description</title><polygon class="cls-1" points="276.646 281.631 275.871 310.934 285.859 316.083 288.018 284.888 276.646 281.631"/><path class="cls-2" d="M544.1,381.633l-2.836,2.191-10.89-1.251,0.734,10.724,32.746-.087s0.681-1.542-1.317-3.917C559.93,386.2,544.1,381.633,544.1,381.633Z" transform="translate(-256.48 -73.964)"/><path class="cls-3" d="M555.028,385.3c3.373,1.311,6.476,2.765,7.506,3.99,2,2.375,1.317,3.917,1.317,3.917l-12.2.032C552.665,390.552,553.78,387.9,555.028,385.3Z" transform="translate(-256.48 -73.964)"/><polygon class="cls-3" points="307.488 317.132 307.372 319.245 274.625 319.332 274.472 316.818 307.488 317.132"/><polygon class="cls-4" points="307.521 317.733 307.487 318.317 274.577 318.146 274.509 317.459 307.521 317.733"/><polygon class="cls-2" points="289.699 309.312 288.64 304.361 283.572 306.917 284.747 312.366 289.699 309.312"/><line class="cls-5" x1="295.8" y1="310.216" x2="293.975" y2="312.881"/><line class="cls-5" x1="294.005" y1="309.453" x2="292.179" y2="312.118"/><line class="cls-5" x1="291.897" y1="308.451" x2="289.916" y2="311.003"/><polygon class="cls-1" points="313.155 281.66 315.574 310.872 326.063 314.904 324.814 283.659 313.155 281.66"/><path class="cls-2" d="M583.93,381.633l-2.836,2.191-10.89-1.251,0.734,10.724,32.746-.087s0.681-1.542-1.317-3.917C599.764,386.2,583.93,381.633,583.93,381.633Z" transform="translate(-256.48 -73.964)"/><path class="cls-3" d="M594.861,385.3c3.373,1.311,6.476,2.765,7.506,3.99,2,2.375,1.317,3.917,1.317,3.917l-12.2.032C592.5,390.552,593.614,387.9,594.861,385.3Z" transform="translate(-256.48 -73.964)"/><polygon class="cls-3" points="347.321 317.132 347.205 319.245 314.458 319.332 314.306 316.818 347.321 317.132"/><polygon class="cls-4" points="347.354 317.733 347.32 318.317 314.411 318.146 314.342 317.459 347.354 317.733"/><polygon class="cls-2" points="329.532 309.312 328.474 304.361 323.405 306.917 324.58 312.366 329.532 309.312"/><line class="cls-5" x1="335.634" y1="310.216" x2="333.808" y2="312.881"/><line class="cls-5" x1="333.838" y1="309.453" x2="332.013" y2="312.118"/><line class="cls-5" x1="331.73" y1="308.451" x2="329.75" y2="311.003"/><path class="cls-6" d="M535.466,238.591s-8.287,117.874-4.233,140.315c0,0,8.429,3.448,15-2.024,0,0,10.972-94.37,11.8-106.493l5.333-.667s2.916,100.916,5,105.333c0,0,9.923,4.863,16.439.1l-1.312-138.584Z" transform="translate(-256.48 -73.964)"/><path class="cls-7" d="M583.563,244.529l-0.075-7.962-48.021,2.024s-0.516,7.943-.773,11.8C560.661,252.605,576.559,245.537,583.563,244.529Z" transform="translate(-256.48 -73.964)"/><path class="cls-7" d="M563.36,269.722s2.916,100.916,5,105.333c0,0,9.923,4.863,16.439.1L583.777,267.1Z" transform="translate(-256.48 -73.964)"/><path class="cls-7" d="M567.349,371.384s10.563,1.243,18.33-1.036l0.207,5.489s-4.66,4.142-17.812,1.243Z" transform="translate(-256.48 -73.964)"/><path class="cls-7" d="M547.776,373.676l-0.2,6.057s-9.608,2.487-17.415-.649l-0.3-5.732S540.87,374.65,547.776,373.676Z" transform="translate(-256.48 -73.964)"/><path class="cls-8" d="M527.738,146.866s4.834,7.5,8.508,7.831-3.418-10.14-3.418-10.14Z" transform="translate(-256.48 -73.964)"/><polygon class="cls-9" points="277.261 73.227 281.426 94.186 293.598 106.725 297.187 91.018 293.364 75.323 277.261 73.227"/><path class="cls-9" d="M531.188,116.326c-9.029,5.578-6.508,11.959-6.508,11.959a59.331,59.331,0,0,0,2.981,9.883,3.483,3.483,0,0,0-4.373.352c-2.851,2.54,2.942,11.059,7.7,8.411a34.891,34.891,0,0,0,4.429,7.083c2.424,2.376,11.423,4.23,17.321,3.792,8.589-.639,10.919-10.042,9.25-16.5-2.313-8.945-12.034-28.046-12.034-28.046S546.139,107.089,531.188,116.326Z" transform="translate(-256.48 -73.964)"/><path class="cls-8" d="M528.235,118.93c-2.544.881-5.9,6.3-8.46,7.132,0.015,0.015.032,0.027,0.045,0.043,0.807,0.954,4.622,11.759,4.622,11.759a2.407,2.407,0,0,1,3.248,1.493l1.941,4.455,1.729-.882-2.525-10.011a5.345,5.345,0,0,0,1.424-3.264S528.447,120.793,528.235,118.93Z" transform="translate(-256.48 -73.964)"/><path class="cls-8" d="M528.11,137.055a15.429,15.429,0,0,0,2.875-9,32.2,32.2,0,0,0-1-7.25s5.875,3.625,15.5.75l-4.25-1.875s10.75,0.25,15.5-4.5l-3.25-.25a12.5,12.5,0,0,0,5.625-7.375l-3.75,1s2.875-2.625-1-6.875c0,0-.625,3.625-4.125,3.875,0,0,1.875-2.375-1.75-5,0,0,1.875,3.75-2.375,4.25-3.165.372-18.375-5.625-22.25,8.25,0,0-8.373,1.2-7.5,11.5,0.625,7.375,6.927,13.964,6.927,13.964s2.448-2.714,4.7,1.286Z" transform="translate(-256.48 -73.964)"/><path class="cls-10" d="M547.384,128.457c0.389,0.461.747,0.942,1.114,1.417s0.719,0.959,1.072,1.443c0.7,0.972,1.372,1.961,2.033,2.957,1.311,2,2.569,4.031,3.749,6.112l0.15,0.264-0.181.195c-0.462.5-.938,0.981-1.419,1.462-0.5.465-.973,0.952-1.5,1.4,0.349-.591.748-1.141,1.121-1.713,0.391-.556.787-1.108,1.2-1.649l-0.032.458c-1.366-1.964-2.654-3.978-3.889-6.024-0.612-1.027-1.211-2.062-1.786-3.112-0.284-.527-0.572-1.052-0.838-1.591S547.632,129.007,547.384,128.457Z" transform="translate(-256.48 -73.964)"/><path class="cls-8" d="M535.393,129.843a2.014,2.014,0,0,1,.024-0.482,4.019,4.019,0,0,1,.358-1.164,4.891,4.891,0,0,1,2.715-2.418,4.278,4.278,0,0,1,1.011-.251,4.01,4.01,0,0,1,1.008-.032,3.863,3.863,0,0,1,.917.173,3.12,3.12,0,0,1,.761.32,3.366,3.366,0,0,1,.967.757,2.741,2.741,0,0,1,.3.369s-0.181.067-.459,0.138c-0.138.034-.3,0.083-0.479,0.11s-0.377.114-.577,0.156a5.613,5.613,0,0,0-.621.161c-0.21.072-.425,0.094-0.635,0.182s-0.426.117-.636,0.2-0.427.13-.636,0.225c-0.43.14-.856,0.327-1.292,0.492-0.427.18-.862,0.35-1.256,0.51l-1.027.393C535.567,129.784,535.393,129.843,535.393,129.843Z" transform="translate(-256.48 -73.964)"/><path class="cls-8" d="M547.813,125.65a1.76,1.76,0,0,1-.075-0.443,3.384,3.384,0,0,1,.119-1.124,3.729,3.729,0,0,1,1.489-2.046,3.786,3.786,0,0,1,1.944-.652,4.035,4.035,0,0,1,.984.085,4.909,4.909,0,0,1,.83.311,3.411,3.411,0,0,1,.63.436,3.015,3.015,0,0,1,.717.875,2.438,2.438,0,0,1,.194.4s-0.176.041-.44,0.076-0.61.038-.99,0.114c-0.186.032-.376,0.024-0.563,0.066s-0.371.061-.548,0.093c-0.172.062-.345,0.072-0.506,0.125a4.926,4.926,0,0,0-.475.151,4.635,4.635,0,0,0-.482.169l-0.506.214c-0.344.158-.7,0.34-1.042,0.511l-0.889.452C547.971,125.575,547.813,125.65,547.813,125.65Z" transform="translate(-256.48 -73.964)"/><path class="cls-11" d="M555.037,145.049s-4.937,1.677-8.746,2.47c0,0,3.767,2.788,7.112,1.16C555.458,147.68,555.037,145.049,555.037,145.049Z" transform="translate(-256.48 -73.964)"/><path class="cls-11" d="M549.978,147.476a4.38,4.38,0,0,0-2.456.77,9.433,9.433,0,0,1-1.23-.726c3.809-.793,8.746-2.47,8.746-2.47s0.421,2.63-1.634,3.63a4.95,4.95,0,0,1-.646.259A3.455,3.455,0,0,0,549.978,147.476Z" transform="translate(-256.48 -73.964)"/><path class="cls-8" d="M543.93,132.516a3.094,3.094,0,0,1,.329,1.374,2.885,2.885,0,0,1-.344,1.5,2.574,2.574,0,0,1-.595.714c-0.131.088-.263,0.182-0.4,0.263-0.159.071-.25,0.122-0.47,0.207l-0.395.093c-0.168.02-.352,0.033-0.523,0.037a2.313,2.313,0,0,1-.913-0.246,2.77,2.77,0,0,1-1.113-1.073,3.157,3.157,0,0,1-.468-1.333,7.566,7.566,0,0,0,.887,1,4.029,4.029,0,0,0,.47.374,2.342,2.342,0,0,0,.552.279,2.017,2.017,0,0,0,.6.1l0.279-.025,0.391-.108c0.029-.021.186-0.079,0.274-0.115l0.279-.166a2.371,2.371,0,0,0,.451-0.439,3.26,3.26,0,0,0,.5-1.113A7.1,7.1,0,0,0,543.93,132.516Z" transform="translate(-256.48 -73.964)"/><path class="cls-8" d="M555.138,129.117a3.37,3.37,0,0,1,.431,1.318,2.772,2.772,0,0,1-.19,1.507,1.958,1.958,0,0,1-.584.747,2.337,2.337,0,0,1-.9.412,2.2,2.2,0,0,1-.964-0.011,2.285,2.285,0,0,1-.83-0.387,3.358,3.358,0,0,1-.965-1.131,3.77,3.77,0,0,1-.456-1.306,13.008,13.008,0,0,0,.875,1,4.4,4.4,0,0,0,.977.768,1.982,1.982,0,0,0,.582.2,0.8,0.8,0,0,0,.274.023,1.073,1.073,0,0,0,.337-0.046,1.477,1.477,0,0,0,.545-0.223,1.416,1.416,0,0,0,.4-0.417,2.282,2.282,0,0,0,.247-0.556,4.419,4.419,0,0,0,.129-0.581A8.948,8.948,0,0,0,555.138,129.117Z" transform="translate(-256.48 -73.964)"/><path class="cls-9" d="M586.641,134.771s4.7-3.474,4.178-5.418c-0.544-2.017-1.524-2.029-1.524-2.029s0.889-4.233-1.831-3.451c0,0-.024-3.78-3.118-2.151s-9.664,4.065-8.883,7.59,6.4,9.617,6.4,9.617Z" transform="translate(-256.48 -73.964)"/><path class="cls-11" d="M579.877,122.891l17.887,15.539s-4.914,4.98-5.274,4.467-15.319-16.1-15.319-16.1Z" transform="translate(-256.48 -73.964)"/><circle class="cls-3" cx="600.875" cy="88.906" r="7.308" transform="translate(-175.408 329.204) rotate(-39.573)"/><path class="cls-12" d="M583.47,76.533s1.336,20.023-14.339,34.018L580.736,122.7s22.806-17.571,35.056-16.508Z" transform="translate(-256.48 -73.964)"/><path class="cls-11" d="M613.561,109.707a3.283,3.283,0,0,1-2.874-1.689C601.4,91.307,581.172,80.25,580.969,80.14a3.285,3.285,0,1,1,3.121-5.781c0.9,0.485,22.125,12.1,32.339,30.466A3.286,3.286,0,0,1,613.561,109.707Z" transform="translate(-256.48 -73.964)"/><path class="cls-12" d="M572.2,120.352c3.067,3.6,6.09,5.735,2.614,8.695A8.572,8.572,0,0,1,563.7,116C567.177,113.043,569.128,116.75,572.2,120.352Z" transform="translate(-256.48 -73.964)"/><polygon class="cls-11" points="312.611 34.363 327.039 48.293 319.294 56.339 304.789 41.75 312.611 34.363"/><path class="cls-9" d="M584.285,122.358s-14.9,14.69.289,4.027c0,0-5.468,4.262-4.02,5.361s6.581-3.521,6.581-3.521-5.473,4.858-4.9,5.555,7.318-3.193,7.318-3.193l-0.918-2.994Z" transform="translate(-256.48 -73.964)"/><path class="cls-13" d="M533.36,161.722l20.667-2.667,1.333,6.333,36.667-9-13-18,11-6.333s25.667,24.333,24.333,31.667-35,21.667-35,21.667,5.667,42,7.333,55a155.829,155.829,0,0,1-52.333,4.333s-22.344-62-22.006-66.333,22.006-11,22.006-11Z" transform="translate(-256.48 -73.964)"/><path class="cls-14" d="M559.4,216.734c-13.388-3.523-27.909-7.957-40.209-15.384,6.461,19.211,15.169,43.372,15.169,43.372a155.827,155.827,0,0,0,52.333-4.333c-0.513-4-1.406-10.759-2.4-18.19Q571.76,219.988,559.4,216.734Z" transform="translate(-256.48 -73.964)"/><path class="cls-14" d="M573.419,169.962c0.194,0.388.363,0.792,0.578,1.194,3.106,5.782,4.9,13.1,5.363,14.233,2.454-1.084,8.875-3.943,14.109-6.6A50.013,50.013,0,0,0,573.419,169.962Z" transform="translate(-256.48 -73.964)"/><rect class="cls-15" x="49.466" y="157.256" width="231.154" height="156.104" rx="8.005" ry="8.005"/><path class="cls-16" d="M563.019,389.524c0,1.837-3.027,3.326-6.76,3.326H280.787c-3.733,0-6.76-1.489-6.76-3.326v-1.247c0-1.837,3.027-3.326,6.76-3.326H556.259c3.733,0,6.76,1.489,6.76,3.326v1.247Z" transform="translate(-256.48 -73.964)"/><path class="cls-17" d="M532.351,373.633a8.124,8.124,0,0,1-8.044,8.2H319.654a8.124,8.124,0,0,1-8.044-8.2V244.383a8.124,8.124,0,0,1,8.044-8.2H524.307a8.124,8.124,0,0,1,8.044,8.2V373.633Z" transform="translate(-256.48 -73.964)"/><path class="cls-18" d="M455.979,387.715H387.067c-4.757,0-8.614.277-8.614,2.537v2.576h86.14v-2.576C464.593,387.992,460.736,387.715,455.979,387.715Z" transform="translate(-256.48 -73.964)"/><path class="cls-9" d="M502.1,224.428s-0.127-9.643,1.279-13.493,12.489,8.362,12.489,8.362c12.065,12.009,13.854,15.464,18.937,20.048,0.749-1.41,2.731-4.713,4.738-4.414,0,0,14.35,5.462,1.514,2.294,0,0,10.076,9.535-1.561,1.061,0,0,8.84,12.094-1.357,1.724,0,0,9.17,11.411-.374,2.729,0,0,.771,4.7-3.249,3.9a22.548,22.548,0,0,1-4.944-2.172C523.771,241.69,505.977,231.994,502.1,224.428Z" transform="translate(-256.48 -73.964)"/><path class="cls-14" d="M513.027,176.722s-12.667,30.333-12.333,47c0,0,15,15.333,29,22l5-8.333-17-18.333,7.333-18Z" transform="translate(-256.48 -73.964)"/><rect class="cls-19" x="163.243" y="175.328" width="91.069" height="63.199" rx="2.355" ry="2.355"/><path class="cls-20" d="M510.792,251.816v-1.262c0-.7-1.055-1.262-2.355-1.262H422.078c-1.3,0-2.355.565-2.355,1.262v1.262h91.069Z" transform="translate(-256.48 -73.964)"/><rect class="cls-3" x="76.435" y="190.658" width="145.17" height="100.743" rx="3.754" ry="3.754"/><path class="cls-21" d="M377.2,356.021V330.037a2.01,2.01,0,0,0-2.01-2.01H360.116a2.01,2.01,0,0,0-2.01,2.01v25.984h19.1Z" transform="translate(-256.48 -73.964)"/><path class="cls-22" d="M404.589,356.021V315.455a2.01,2.01,0,0,0-2.01-2.01H387.5a2.01,2.01,0,0,0-2.01,2.01v40.565h19.1Z" transform="translate(-256.48 -73.964)"/><path class="cls-21" d="M431.976,356.021V328.663a2.01,2.01,0,0,0-2.01-2.01H414.89a2.01,2.01,0,0,0-2.01,2.01v27.358h19.1Z" transform="translate(-256.48 -73.964)"/><path class="cls-22" d="M459.362,356.021V296.9a2.01,2.01,0,0,0-2.01-2.01H442.277a2.01,2.01,0,0,0-2.01,2.01v59.118h19.1Z" transform="translate(-256.48 -73.964)"/><polyline class="cls-23" points="210.989 281.742 93.696 281.742 93.696 206.771"/><polyline class="cls-24" points="102.09 235.868 132.594 217.565 157.937 231.175 195.425 204.475"/><polygon class="cls-25" points="188.908 204.46 196.508 202.834 193.53 209.631 188.908 204.46"/><path class="cls-20" d="M478.085,268.365v-1.931c0-1.067-1.681-1.931-3.754-1.931H336.669c-2.073,0-3.754.865-3.754,1.931v1.931h145.17Z" transform="translate(-256.48 -73.964)"/><rect class="cls-26" x="76.435" y="190.658" width="145.17" height="100.743" rx="3.754" ry="3.754"/><path class="cls-27" d="M277.7,231.248c2.813,19.022,9.209,44.587,9.209,44.587a40.045,40.045,0,0,0,9.866-.736,146.945,146.945,0,0,0,7.684,15.619c-0.255.185-.5,0.368-0.741,0.544-0.933.554-8.528,5.15-9.235,8.228,0-.008-0.007-0.014-0.009-0.023a2.2,2.2,0,0,0-.158,1.105c0.513,3.329,18.447-5.491,18.447-5.491l-0.088-1.018-0.015.007-0.149-1.613-0.116.038-2.491-14.334c-0.291-2.29-.628-4.65-0.987-6.983a47.987,47.987,0,0,0,5.224-2.7c-2.461-10.263-8.652-32.723-8.652-32.723s2.913,0.588,7.257,1.242c4,18.653,11.5,42.6,11.5,42.6a40.449,40.449,0,0,0,10.416-1.456,125.214,125.214,0,0,0,7.537,11.3c-0.231.215-.457,0.426-0.672,0.629-0.817.627-7.563,5.9-8.135,9.068a0.71,0.71,0,0,1-.048-0.088,2.093,2.093,0,0,0-.024,1.088c0.91,3.164,17.686-7.437,17.686-7.437l-0.21-.975-0.06.037-0.333-1.541-0.11.051-4.2-13.939q-0.3-1.19-.618-2.4a48.744,48.744,0,0,0,5.525-3.235c-3.056-10.105-10.547-32.174-10.547-32.174s33.864,4.866,43.221-2.6a8.4,8.4,0,0,0,2.611-3.907,5.4,5.4,0,0,0,.387-0.769H277.7Z" transform="translate(-256.48 -73.964)"/><path class="cls-9" d="M335.625,243.6s14.873,44.81,9.366,45.055-25.6-39.22-25.6-39.22Z" transform="translate(-256.48 -73.964)"/><path class="cls-9" d="M343.5,270.425l4.732,15.885c-3.99,1.919-23.356,11.475-8.15-2.64Z" transform="translate(-256.48 -73.964)"/><path class="cls-2" d="M347.912,284.813l0.529,2.471s-16.635,10.586-17.537,7.427,8.223-10.121,8.223-10.121S335.529,290.732,347.912,284.813Z" transform="translate(-256.48 -73.964)"/><path class="cls-28" d="M348.3,286.333l0.21,0.986s-16.776,10.711-17.686,7.514a2.135,2.135,0,0,1,.024-1.1C331.792,296.624,346.35,287.565,348.3,286.333Z" transform="translate(-256.48 -73.964)"/><path class="cls-9" d="M302.72,244.692s9.437,46.261,3.94,45.849S285.9,248.554,285.9,248.554Z" transform="translate(-256.48 -73.964)"/><path class="cls-9" d="M307.348,272.262l2.809,16.335c-4.19,1.43-24.555,8.615-7.778-3.591Z" transform="translate(-256.48 -73.964)"/><path class="cls-2" d="M310.017,287.073l0.231,2.517s-17.776,8.532-18.3,5.288,9.369-9.071,9.369-9.071S297.019,291.477,310.017,287.073Z" transform="translate(-256.48 -73.964)"/><path class="cls-28" d="M310.182,288.7l0.088,1.029s-17.935,8.911-18.447,5.548a2.247,2.247,0,0,1,.158-1.117C292.559,297.21,308.094,289.718,310.182,288.7Z" transform="translate(-256.48 -73.964)"/><path class="cls-29" d="M345.453,192.163l-18.193,8.184S282,201.743,275.5,204.9s8.911,65.379,8.911,65.379c14.208,0.816,27.232-7.429,27.232-7.429-2.461-10.37-8.652-33.063-8.652-33.063s33.523,6.864,43.3-.128S345.453,192.163,345.453,192.163Z" transform="translate(-256.48 -73.964)"/><path class="cls-7" d="M345.453,192.163l-18.193,8.184S282,201.743,275.5,204.9s8.911,65.379,8.911,65.379c14.208,0.816,27.232-7.429,27.232-7.429-2.461-10.37-8.652-33.063-8.652-33.063s33.523,6.864,43.3-.128S345.453,192.163,345.453,192.163Z" transform="translate(-256.48 -73.964)"/><path class="cls-6" d="M378.179,192.569l-17.69,9.221s-45.1,4.009-51.406,7.532,12.673,64.755,12.673,64.755c14.231-.006,26.757-8.99,26.757-8.99-3.056-10.21-10.547-32.508-10.547-32.508s33.864,4.916,43.221-2.629S378.179,192.569,378.179,192.569Z" transform="translate(-256.48 -73.964)"/><path class="cls-6" d="M327.26,200.346s7.325-20.334,11.02-24.385l37.047,3.8s14.835,41.368,7.663,47.2S327.26,200.346,327.26,200.346Z" transform="translate(-256.48 -73.964)"/><ellipse class="cls-9" cx="376.24" cy="114.16" rx="5.514" ry="6.688" transform="translate(-261.314 -56.609) rotate(-2.626)"/><path class="cls-8" d="M370.693,93.07s-4.931-13.526-17.3-10.29-8.227,8.588-13.523,13.962c-5.471,5.552-12.476.983-13.814,7.612-2.246,11.127,10.32,10.2,10.32,10.2s-5.277,5.721-2.1,12.412c4.771,10.044,23.931,7.113,30.036,1.5S370.693,93.07,370.693,93.07Z" transform="translate(-256.48 -73.964)"/><path class="cls-9" d="M354.818,124.611s1.7,0.128-.161,11.216c-0.309,1.845-9.5-.045-10,2.269l12.652,13.269,20.423-7.948-9.57-4.295c0.494-3.32,1.25-8.632,2.007-14.845C371.481,113.485,354.818,124.611,354.818,124.611Z" transform="translate(-256.48 -73.964)"/><path class="cls-30" d="M369.3,131.025c0.278-2.073.571-4.342,0.864-6.748,1.315-10.792-15.348.334-15.348,0.334s0.879,2.152.05,9.445C359.916,134.009,364.848,133.336,369.3,131.025Z" transform="translate(-256.48 -73.964)"/><path class="cls-9" d="M346.732,106.8C351.514,85.9,366.62,95.13,375.957,99.15c-2.337,10.532-2.931,12.3-2.063,22.752C362.888,133.305,340.514,133.965,346.732,106.8Z" transform="translate(-256.48 -73.964)"/><path class="cls-8" d="M366.772,84.41s-8.639,6.269-8.189,10.946,3.712,9.226,11.255,9.819c0,0-1.413,10.165-.007,10.1S373.537,109,373.537,109s6.477-2.176,3.8,5.933c-1.215,3.674-4.335,2.783-4.335,2.783s-6.667,8.292-3.105,14.236,15.75,5.385,19.369-2.767c0,0,13.511,2.669,14.081-10.511,0.419-9.683-18.746-9.241-16.266-16.636s0.624-12.008-4.982-16.449c-7.686-6.088-25.169-5.893-23.511,9.769" transform="translate(-256.48 -73.964)"/><path class="cls-8" d="M359.272,106.729a4.879,4.879,0,0,1,1.363-1.125,5.556,5.556,0,0,1,.78-0.379,5.153,5.153,0,0,1,.938-0.3,5.793,5.793,0,0,1,1.068-.143,5.41,5.41,0,0,1,1.138.105l0.565,0.145a5.265,5.265,0,0,1,.532.235,3.825,3.825,0,0,1,.935.617,3.956,3.956,0,0,1,.687.759,3.072,3.072,0,0,1,.447.77,3.95,3.95,0,0,1,.385,1.237c0.054,0.306.068,0.479,0.068,0.479s-0.137-.125-0.347-0.343c-0.1-.11-0.23-0.239-0.358-0.392a5.229,5.229,0,0,0-.478-0.461,5.01,5.01,0,0,0-.564-0.491,5.062,5.062,0,0,0-.658-0.443,4.127,4.127,0,0,0-.733-0.35,3.62,3.62,0,0,0-.8-0.235,6.717,6.717,0,0,0-.842-0.122c-0.289.008-.574-0.032-0.86,0a14.459,14.459,0,0,0-1.6.15Z" transform="translate(-256.48 -73.964)"/><path class="cls-8" d="M347.6,104.96a3.848,3.848,0,0,1,.872-1.113,4.641,4.641,0,0,1,.538-0.433,4.11,4.11,0,0,1,.683-0.388,3.8,3.8,0,0,1,.818-0.292,4.071,4.071,0,0,1,.928-0.109,3.245,3.245,0,0,1,.956.177,2.533,2.533,0,0,1,.831.441,2.468,2.468,0,0,1,.6.6,2.187,2.187,0,0,1,.367.626,2.9,2.9,0,0,1,.284,1c0.033,0.247.037,0.387,0.037,0.387s-0.116-.1-0.292-0.262c-0.086-.084-0.193-0.182-0.3-0.3a3.659,3.659,0,0,0-.392-0.344,3.24,3.24,0,0,0-.454-0.352,3.1,3.1,0,0,0-.514-0.288l-0.27-.116c-0.093-.03-0.2-0.036-0.288-0.065a3.011,3.011,0,0,0-.6-0.079,5.027,5.027,0,0,0-.64.041,4.692,4.692,0,0,0-.655.114c-0.434.1-.852,0.228-1.224,0.341Z" transform="translate(-256.48 -73.964)"/><path class="cls-10" d="M355.138,110.055a7.887,7.887,0,0,1-1.274,2.076,11.211,11.211,0,0,1-1.71,1.671l0.072-.378c0.327,1.058.634,2.124,0.861,3.221-0.572-.963-1.064-1.957-1.537-2.959l-0.075-.158,0.147-.22a11.209,11.209,0,0,1,1.54-1.829A7.887,7.887,0,0,1,355.138,110.055Z" transform="translate(-256.48 -73.964)"/><path class="cls-8" d="M360.388,112.4a3.094,3.094,0,0,1,.38-1.361,2.886,2.886,0,0,1,1.03-1.144,2.574,2.574,0,0,1,.867-0.335c0.158-.013.319-0.031,0.478-0.035,0.174,0.015.278,0.015,0.512,0.048l0.39,0.11c0.156,0.064.324,0.142,0.475,0.222a2.314,2.314,0,0,1,.678.658,2.77,2.77,0,0,1,.451,1.479,3.157,3.157,0,0,1-.24,1.392,7.566,7.566,0,0,0-.29-1.3,4.027,4.027,0,0,0-.229-0.555,2.342,2.342,0,0,0-.347-0.512,2.017,2.017,0,0,0-.479-0.379l-0.256-.114-0.394-.1c-0.035,0-.2-0.021-0.295-0.033l-0.324.01a2.371,2.371,0,0,0-.607.165,3.26,3.26,0,0,0-.982.728A7.1,7.1,0,0,0,360.388,112.4Z" transform="translate(-256.48 -73.964)"/><path class="cls-8" d="M348.408,109.337a3.369,3.369,0,0,1,.264-1.362,2.773,2.773,0,0,1,.9-1.225,1.958,1.958,0,0,1,.873-0.369,2.337,2.337,0,0,1,.985.077,2.2,2.2,0,0,1,.836.479,2.285,2.285,0,0,1,.537.742,3.358,3.358,0,0,1,.293,1.458,3.771,3.771,0,0,1-.236,1.363,13,13,0,0,0-.28-1.3,4.4,4.4,0,0,0-.48-1.147,1.982,1.982,0,0,0-.41-0.461,0.8,0.8,0,0,0-.228-0.153,1.072,1.072,0,0,0-.317-0.124,1.477,1.477,0,0,0-.585-0.07,1.416,1.416,0,0,0-.553.169,2.284,2.284,0,0,0-.486.365,4.421,4.421,0,0,0-.4.445A8.95,8.95,0,0,0,348.408,109.337Z" transform="translate(-256.48 -73.964)"/><path class="cls-31" d="M351.557,119.354s4.37,1.106,7.715,1.539c0,0-3.117,2.583-6.1,1.419C351.334,121.6,351.557,119.354,351.557,119.354Z" transform="translate(-256.48 -73.964)"/><path class="cls-11" d="M356.074,121.085a3.859,3.859,0,0,1,2.171.5,8.335,8.335,0,0,0,1.028-.688c-3.345-.432-7.715-1.538-7.715-1.538s-0.223,2.242,1.611,2.958a4.329,4.329,0,0,0,.574.178A3.056,3.056,0,0,1,356.074,121.085Z" transform="translate(-256.48 -73.964)"/><path class="cls-9" d="M302.533,135.744s-5.844.127-6.619-1.732c-0.8-1.929-.035-2.537-0.035-2.537s-3.292-2.8-.662-3.85c0,0-2.293-3.005,1.151-3.608s10.132-2.693,11.67.573,2.336,10.572,2.336,10.572Z" transform="translate(-256.48 -73.964)"/><path class="cls-32" d="M339.2,139.818l-21.019,16.227-6.526-22.824s-8.112-.309-11.793,4.064c0,0,4.44,37.024,14.461,36.888s28.259-17.044,28.259-17.044Z" transform="translate(-256.48 -73.964)"/><path class="cls-11" d="M300.62,122.208l-4.65,23.233s6.933,0.935,6.9.31,2.275-22.106,2.275-22.106Z" transform="translate(-256.48 -73.964)"/><path class="cls-9" d="M296.806,124.482s20.771,2.513,2.234,3.363c0,0,6.933.029,6.459,1.783s-7.36,1.239-7.36,1.239,7.3,0.5,7.273,1.4-7.743,1.949-7.743,1.949l-1.1-2.93Z" transform="translate(-256.48 -73.964)"/><circle class="cls-3" cx="263.788" cy="108.455" r="7.308" transform="translate(-109.707 294.595) rotate(-88.128)"/><path class="cls-12" d="M269.428,87.726s11.188,16.66,32.148,18.146l-1.75,16.714s-28.79.044-37.832,8.376Z" transform="translate(-256.48 -73.964)"/><path class="cls-33" d="M270.61,87.719s-9.755,21.984-6.71,42.056" transform="translate(-256.48 -73.964)"/><path class="cls-12" d="M305.146,115.5c-0.224,4.726-1.311,8.262,3.249,8.478a8.572,8.572,0,0,0,.812-17.114C304.646,106.65,305.37,110.776,305.146,115.5Z" transform="translate(-256.48 -73.964)"/><polygon class="cls-11" points="43.768 30.124 40.871 49.97 51.919 51.599 54.474 31.186 43.768 30.124"/><path class="cls-34" d="M338.28,175.962s22.508,4.143,37.047,3.8c0,0,10.184-31.841,4.445-37.077s-35.774-11.3-41.2-2.639-15.44,23.026-1.176,30.781Z" transform="translate(-256.48 -73.964)"/><path class="cls-32" d="M373.69,152.625c-5.073,3.151-10.189,7.082-15.612,9.571-9.509,4.364-19.683,2.045-27.963-3.437-0.339,4.569,1.416,8.878,7.283,12.068l0.882,5.135s22.508,4.143,37.047,3.8c0,0,8.092-25.315,5.772-34.505A23.667,23.667,0,0,1,373.69,152.625Z" transform="translate(-256.48 -73.964)"/><path class="cls-32" d="M350.59,141.112l0.383-8.427s12.277-.563,19.7,2.008l0.385,8.392Z" transform="translate(-256.48 -73.964)"/><path class="cls-9" d="M335.41,199.378c1.572-.236,1.894-0.551-1.6-0.941l-0.785-.463s-0.331.111-.882,0.3l-0.488-.044c-10.712-.911-5.481.921-3.668,1.493-4.453,1.591-10.177,3.774-9.716,4.333,0.746,0.905,6.275-1.462,6.275-1.462s-15.649,7.06-.383,1.9c0,0-11.718,5.705,1.226,1.118,0,0-15.091,7.3,15.08-3.246Z" transform="translate(-256.48 -73.964)"/><path class="cls-32" d="M381.123,143.917s9.055,7.024,1.11,24.208c-5.943,12.854-9.529,17.9-9.529,17.9s-17.353,15.706-33.08,18.368c0,0-5.961-4.536-7.43-8.35l28.138-18.83s10.341-42.522,20.791-33.3" transform="translate(-256.48 -73.964)"/><rect class="cls-3" x="150.218" y="89.153" width="84.98" height="58.973" rx="2.198" ry="2.198"/><path class="cls-22" d="M448.655,216.62V191.007c0-1.094-.527-1.981-1.177-1.981h-8.825c-0.65,0-1.177.887-1.177,1.981V216.62h11.178Z" transform="translate(-256.48 -73.964)"/><path class="cls-35" d="M432.155,216.62V195.835a1.111,1.111,0,0,0-1.177-1.03h-8.825a1.111,1.111,0,0,0-1.177,1.03V216.62h11.178Z" transform="translate(-256.48 -73.964)"/><path class="cls-22" d="M479.436,216.62V186.9c0-1.206-.527-2.183-1.177-2.183h-8.825c-0.65,0-1.177.977-1.177,2.183V216.62h11.178Z" transform="translate(-256.48 -73.964)"/><path class="cls-35" d="M464.583,216.62v-23.6a1.045,1.045,0,0,0-1.177-.8h-8.825a1.045,1.045,0,0,0-1.177.8v23.6h11.178Z" transform="translate(-256.48 -73.964)"/><polyline class="cls-24" points="228.984 142.471 160.322 142.471 160.322 98.585"/><polyline class="cls-24" points="165.236 115.617 183.093 104.903 197.928 112.87 219.873 97.241"/><polygon class="cls-25" points="216.058 97.232 220.506 96.28 218.764 100.259 216.058 97.232"/><path class="cls-20" d="M491.678,165.308v-1.13c0-.624-0.984-1.13-2.2-1.13H408.9c-1.214,0-2.2.506-2.2,1.13v1.13h84.98Z" transform="translate(-256.48 -73.964)"/><rect class="cls-26" x="150.218" y="89.153" width="84.98" height="58.973" rx="2.198" ry="2.198"/></svg>