<svg id="Layer_3" data-name="Layer 3" xmlns="http://www.w3.org/2000/svg" viewBox="0 0 214 50"><defs><style>.cls-1{fill:#24c4ff;}.cls-2{fill:#fff;}</style></defs><title>logo</title><path class="cls-1" d="M68.26,19.426H68.216a20.292,20.292,0,0,0-40.254-2.454c-0.227-.009-0.462-0.017-0.689-0.017a16.437,16.437,0,0,0-15.7,11.794c-0.314-.026-0.637-0.044-0.959-0.044A10.736,10.736,0,0,0,10.6,50.176H68.251A15.376,15.376,0,0,0,68.26,19.426Z" transform="translate(0 -0.176)"/><path class="cls-2" d="M115.178,46.234a20.67,20.67,0,0,1-8.055-7.735,21.514,21.514,0,0,1-2.932-11.183,21.519,21.519,0,0,1,2.932-11.183A20.67,20.67,0,0,1,115.178,8.4a25.422,25.422,0,0,1,21.264-.869,19.55,19.55,0,0,1,7.314,5.516L137.6,18.8a13.183,13.183,0,0,0-10.424-4.917,13.705,13.705,0,0,0-6.87,1.709,12.07,12.07,0,0,0-4.709,4.767,14.154,14.154,0,0,0-1.688,6.955,14.153,14.153,0,0,0,1.688,6.956,12.08,12.08,0,0,0,4.709,4.767,13.705,13.705,0,0,0,6.87,1.709A13.116,13.116,0,0,0,137.6,35.771l6.16,5.756a19.216,19.216,0,0,1-7.344,5.577,24.121,24.121,0,0,1-9.772,1.918A23.572,23.572,0,0,1,115.178,46.234Z" transform="translate(0 -0.176)"/><path class="cls-2" d="M150.033,10.047a4.889,4.889,0,0,1-1.6-3.718,4.891,4.891,0,0,1,1.6-3.717,5.821,5.821,0,0,1,4.146-1.5,5.965,5.965,0,0,1,4.146,1.439,4.64,4.64,0,0,1,1.6,3.6,5.124,5.124,0,0,1-1.6,3.867,5.754,5.754,0,0,1-4.146,1.529A5.816,5.816,0,0,1,150.033,10.047Zm-0.473,6H158.8V48.3H149.56V16.044Z" transform="translate(0 -0.176)"/><path class="cls-2" d="M198.424,34.811H174.317a7.608,7.608,0,0,0,3.08,4.738,10.109,10.109,0,0,0,6.041,1.738,12.067,12.067,0,0,0,4.412-.75,10.666,10.666,0,0,0,3.584-2.368l4.916,5.4q-4.5,5.216-13.149,5.217a20.584,20.584,0,0,1-9.535-2.129,15.48,15.48,0,0,1-6.4-5.906,16.415,16.415,0,0,1-2.25-8.575,16.642,16.642,0,0,1,2.22-8.544,15.644,15.644,0,0,1,6.1-5.936,18.681,18.681,0,0,1,17.147-.09,14.8,14.8,0,0,1,5.953,5.846,17.615,17.615,0,0,1,2.161,8.844Q198.6,32.473,198.424,34.811ZM176.8,24.438a7.688,7.688,0,0,0-2.606,4.917h15.7a7.615,7.615,0,0,0-7.818-6.716A7.893,7.893,0,0,0,176.8,24.438Z" transform="translate(0 -0.176)"/><path class="cls-2" d="M204.761,3.811H214V48.3h-9.239V3.811Z" transform="translate(0 -0.176)"/></svg>