<svg id="Layer_2" data-name="Layer 2" xmlns="http://www.w3.org/2000/svg" xmlns:xlink="http://www.w3.org/1999/xlink" viewBox="0 0 1105.047 656"><defs><style>.cls-1{fill:#edf2f7;}.cls-2{fill:#27c6fe;}.cls-3{opacity:0.05;}.cls-24,.cls-4{fill:#fff;}.cls-5{fill:#e1e1e1;}.cls-6{fill:#efefef;opacity:0.7;}.cls-7{fill:url(#Degradado_sin_nombre_4);}.cls-8{opacity:0.1;}.cls-9{fill:#74847c;}.cls-10{fill:#5ec394;}.cls-11{fill:#b5c7e2;}.cls-12{fill:#b3c7e2;}.cls-13{fill:#ff738e;}.cls-14{fill:#bccfe8;}.cls-15{opacity:0.8;fill:url(#Degradado_sin_nombre_4-2);}.cls-16{fill:#227efd;}.cls-17{fill:#e4ecf4;}.cls-18,.cls-21{fill:#bbb;}.cls-18,.cls-22{opacity:0.2;}.cls-19{fill:#dce7f9;}.cls-20{fill:#f4f6f9;opacity:0.93;}.cls-23{fill:#24d5ff;}.cls-24{opacity:0.5;}.cls-25{fill:#ebeff2;}.cls-26{fill:#c7ddef;}.cls-27{fill:#f99653;}.cls-28{fill:#ffa364;}.cls-29{fill:#ffb583;}.cls-30{fill:#5b7282;}.cls-31{fill:#677687;}.cls-32{fill:#77e9fc;}.cls-33{opacity:0.11;}</style><linearGradient id="Degradado_sin_nombre_4" x1="143.803" y1="546.724" x2="143.803" y2="367.08" gradientUnits="userSpaceOnUse"><stop offset="0" stop-color="#fff"/><stop offset="0.216" stop-color="#fff" stop-opacity="0.763"/><stop offset="0.604" stop-color="#fff" stop-opacity="0.356"/><stop offset="0.874" stop-color="#fff" stop-opacity="0.1"/><stop offset="1" stop-color="#fff" stop-opacity="0"/></linearGradient><linearGradient id="Degradado_sin_nombre_4-2" x1="553.635" y1="-994.248" x2="553.635" y2="729.523" xlink:href="#Degradado_sin_nombre_4"/></defs><title>video</title><rect class="cls-1" width="1105.047" height="656"/><rect class="cls-2" y="441.26" width="1105.047" height="214.74"/><ellipse class="cls-3" cx="143.804" cy="592.705" rx="67.263" ry="10.061"/><path class="cls-4" d="M200.222,507.159a28.523,28.523,0,1,0-8.664,55.649c0.3,0,.584-0.011.873-0.019A28.523,28.523,0,0,0,200.222,507.159Zm-0.25,41.289a16.545,16.545,0,1,1,7.985-14.251A16.493,16.493,0,0,1,199.972,548.448Z"/><path class="cls-5" d="M191.494,550.839a16.493,16.493,0,0,0,8.478-2.39c-1.426,5.887-3.792,11.025-7.541,14.341-0.289.009-.577,0.017-0.873,0.019a28.522,28.522,0,1,1,8.664-55.649c0.446,3.089,1.093,8.19,1.442,14.144A16.55,16.55,0,1,0,191.494,550.839Z"/><path class="cls-4" d="M194.93,494.472l0.216,40.308a51.616,51.616,0,0,1-103.23.554L91.7,495.026Z"/><path class="cls-5" d="M179.146,592.862l-70.607.379a7.2,7.2,0,0,1-7.217-7.14h0a7.2,7.2,0,0,1,7.14-7.216l70.607-.379a7.2,7.2,0,0,1,7.217,7.14h0A7.2,7.2,0,0,1,179.146,592.862Z"/><path class="cls-6" d="M184.278,566.74a51.706,51.706,0,0,1-12.941,11.807l-55.143.3a51.64,51.64,0,0,1-24.278-43.509L91.7,495.026l30.747-.165,0.058,10.765a61.445,61.445,0,0,0,61.774,61.114h0Z"/><path class="cls-7" d="M124.615,481.03s-11.851-8.57-8.394-25.359,17.283-19.258,13.332-45.429-5.926-49.873,5.432-63.7h37.034s-12.962,35.183-4.074,58.885,1.053,33.454-6.819,46.787,3.979,28.815,3.979,28.815H124.615Z"/><rect class="cls-8" x="958.536" y="329.498" width="104.377" height="83.269"/><rect class="cls-4" x="958.536" y="321.654" width="104.377" height="83.269"/><path class="cls-9" d="M958.538,300.546v21.368H1062.91V300.546H958.538Zm14.247,15.416a5.145,5.145,0,0,1-5.143-5.137v-0.006a5.136,5.136,0,0,1,10.273,0v0.006A5.134,5.134,0,0,1,972.785,315.962Zm75.885,0a5.139,5.139,0,0,1-5.137-5.137v-0.006a5.136,5.136,0,0,1,10.273,0v0.006A5.135,5.135,0,0,1,1048.669,315.962Z"/><path class="cls-10" d="M1062.91,310.825v11.088H958.538V310.825h9.1a5.136,5.136,0,1,0,10.273,0h65.618a5.136,5.136,0,1,0,10.273,0h9.1Z"/><path class="cls-4" d="M970.487,288.974h4.586a1,1,0,0,1,1,1v20.7a0.151,0.151,0,0,1-.151.151h-6.284a0.151,0.151,0,0,1-.151-0.151v-20.7A1,1,0,0,1,970.487,288.974Z"/><path class="cls-4" d="M1046.376,288.974h4.586a1,1,0,0,1,1,1v20.7a0.151,0.151,0,0,1-.151.151h-6.284a0.151,0.151,0,0,1-.151-0.151v-20.7A1,1,0,0,1,1046.376,288.974Z"/><path class="cls-11" d="M988,342.519c6.068,0,7.424-2.927,8.638-6.282h5.283v49.972H994.07V348.087H988v-5.568Z"/><path class="cls-11" d="M1022.91,342.8c-2.5,0-4.069,1.356-4.069,4.926v5.354h-7.424V348.23c0-8,4-12.565,11.707-12.565s11.708,4.569,11.708,12.565c0,15.705-15.634,21.559-15.634,29.769a5.419,5.419,0,0,0,.071,1.071h14.849v7.139h-22.7v-6.139c0-14.706,15.562-17.133,15.562-31.553C1026.979,344.018,1025.408,342.8,1022.91,342.8Z"/><g class="cls-8"><circle cx="138.552" cy="133.938" r="71.055"/></g><circle class="cls-10" cx="138.552" cy="126.692" r="71.055"/><path class="cls-4" d="M138.552,192.147a65.455,65.455,0,1,1,65.455-65.455A65.529,65.529,0,0,1,138.552,192.147Z"/><rect class="cls-12" x="136.277" y="67.188" width="2.45" height="13.651"/><rect class="cls-12" x="136.277" y="172.195" width="2.45" height="13.651"/><rect class="cls-12" x="78.172" y="125.292" width="13.651" height="2.45"/><rect class="cls-12" x="183.18" y="125.292" width="13.651" height="2.45"/><rect class="cls-12" x="167.802" y="88.166" width="13.651" height="2.45" transform="translate(-12.062 149.662) rotate(-45)"/><rect class="cls-12" x="93.551" y="162.418" width="13.651" height="2.45" transform="translate(-86.313 118.907) rotate(-45)"/><rect class="cls-12" x="99.151" y="82.566" width="2.45" height="13.651" transform="translate(-33.81 97.159) rotate(-45)"/><rect class="cls-12" x="173.403" y="156.817" width="2.45" height="13.651" transform="translate(-64.566 171.397) rotate(-44.997)"/><g class="cls-8"><path d="M204.007,126.692q0,1.88-.105,3.738a65.456,65.456,0,0,0-130.7,0q-0.105-1.858-.105-3.738A65.455,65.455,0,0,1,204.007,126.692Z"/></g><rect class="cls-13" x="147.184" y="117.993" width="2.1" height="24.874" transform="translate(-27.436 220.572) rotate(-68.508)"/><polygon class="cls-14" points="138.552 127.567 100.376 127.567 100.376 125.467 136.452 125.467 136.452 95.833 138.552 95.833 138.552 127.567"/><circle class="cls-15" cx="553.635" cy="335.342" r="305.387"/><ellipse class="cls-8" cx="566.728" cy="512.318" rx="270.723" ry="19.646"/><path class="cls-16" d="M340.08,104.522H777.342a14.023,14.023,0,0,1,14.023,14.023V380.087a0,0,0,0,1,0,0H325.057a0,0,0,0,1,0,0V119.545A15.023,15.023,0,0,1,340.08,104.522Z"/><path class="cls-4" d="M749.564,421.888H366.858a41.8,41.8,0,0,1-41.8-41.8H791.365A41.8,41.8,0,0,1,749.564,421.888Z"/><rect class="cls-17" x="515.598" y="421.888" width="84.617" height="70.413"/><rect class="cls-18" x="515.598" y="421.888" width="84.617" height="22.321"/><path class="cls-4" d="M472.1,492.3h171.62a12,12,0,0,1,12,12v14.785a0,0,0,0,1,0,0H460.1a0,0,0,0,1,0,0V504.3A12,12,0,0,1,472.1,492.3Z"/><path class="cls-19" d="M347.248,122.02a7.492,7.492,0,0,0-7.47,7.471v5.367L595.668,356.1h43.811L368.74,122.02H347.248Z"/><path class="cls-19" d="M339.777,216.6V348.625a7.492,7.492,0,0,0,7.47,7.471H558.555L339.777,166.945V216.6Z"/><path class="cls-19" d="M768.565,122.02H475.322L746.061,356.1h22.5a7.493,7.493,0,0,0,7.471-7.471V129.491A7.492,7.492,0,0,0,768.565,122.02Z"/><polygon class="cls-20" points="455.707 122.02 368.74 122.02 639.479 356.095 665.123 356.095 746.061 356.095 475.322 122.02 455.707 122.02"/><polygon class="cls-20" points="339.777 166.945 558.555 356.095 595.668 356.095 339.777 134.858 339.777 166.945"/><circle class="cls-21" cx="556.258" cy="399.585" r="13.187"/><rect class="cls-22" x="667.591" y="367.941" width="46.144" height="48.897" transform="translate(-5.606 10.036) rotate(-0.829)"/><rect class="cls-23" x="665.069" y="366.876" width="46.144" height="46.139" transform="translate(-5.57 9.996) rotate(-0.829)"/><rect class="cls-24" x="683.902" y="355.682" width="7.714" height="15.711" transform="translate(-5.181 9.976) rotate(-0.828)"/><polygon class="cls-3" points="786.119 635 328.404 635 388.843 539.059 725.68 539.059 786.119 635"/><polygon class="cls-25" points="770.754 605.404 342.756 605.404 384.436 539.059 729.073 539.059 770.754 605.404"/><rect class="cls-26" x="342.756" y="605.404" width="427.998" height="15.025"/><polygon class="cls-4" points="407.302 550.771 385.674 550.771 388.843 543.971 409.785 543.971 407.302 550.771"/><polygon class="cls-4" points="410.102 550.771 412.838 543.971 433.779 543.971 431.731 550.771 410.102 550.771"/><polygon class="cls-4" points="434.532 550.771 436.832 543.971 457.773 543.971 456.16 550.771 434.532 550.771"/><polygon class="cls-4" points="459.04 550.771 460.905 543.971 481.847 543.971 480.669 550.771 459.04 550.771"/><polygon class="cls-4" points="483.496 550.771 484.926 543.971 505.868 543.971 505.124 550.771 483.496 550.771"/><polygon class="cls-4" points="507.951 550.771 508.947 543.971 529.888 543.971 529.58 550.771 507.951 550.771"/><polygon class="cls-4" points="532.344 550.771 532.905 543.971 553.846 543.971 553.972 550.771 532.344 550.771"/><polygon class="cls-4" points="556.582 550.771 556.708 543.971 577.649 543.971 578.21 550.771 556.582 550.771"/><polygon class="cls-4" points="580.974 550.771 580.665 543.971 601.607 543.971 602.603 550.771 580.974 550.771"/><polygon class="cls-4" points="605.429 550.771 604.686 543.971 625.627 543.971 627.058 550.771 605.429 550.771"/><polygon class="cls-4" points="629.885 550.771 628.707 543.971 649.649 543.971 651.514 550.771 629.885 550.771"/><polygon class="cls-4" points="654.394 550.771 652.78 543.971 673.722 543.971 676.022 550.771 654.394 550.771"/><polygon class="cls-4" points="678.823 550.771 676.775 543.971 697.716 543.971 700.451 550.771 678.823 550.771"/><polygon class="cls-4" points="703.252 550.771 724.88 550.771 721.711 543.971 700.769 543.971 703.252 550.771"/><polygon class="cls-4" points="402.812 563.482 380.389 563.482 383.675 556.431 405.386 556.431 402.812 563.482"/><polygon class="cls-4" points="405.716 563.482 408.551 556.431 430.263 556.431 428.14 563.482 405.716 563.482"/><polygon class="cls-4" points="431.043 563.482 433.428 556.431 455.139 556.431 453.467 563.482 431.043 563.482"/><polygon class="cls-4" points="456.453 563.482 458.386 556.431 480.098 556.431 478.876 563.482 456.453 563.482"/><polygon class="cls-4" points="481.807 563.482 483.29 556.431 505.002 556.431 504.231 563.482 481.807 563.482"/><polygon class="cls-4" points="507.162 563.482 508.194 556.431 529.905 556.431 529.585 563.482 507.162 563.482"/><polygon class="cls-4" points="532.451 563.482 533.032 556.431 554.744 556.431 554.875 563.482 532.451 563.482"/><polygon class="cls-4" points="557.58 563.482 557.711 556.431 579.422 556.431 580.004 563.482 557.58 563.482"/><polygon class="cls-4" points="582.869 563.482 582.549 556.431 604.26 556.431 605.293 563.482 582.869 563.482"/><polygon class="cls-4" points="608.224 563.482 607.453 556.431 629.165 556.431 630.647 563.482 608.224 563.482"/><polygon class="cls-4" points="633.578 563.482 632.357 556.431 654.068 556.431 656.002 563.482 633.578 563.482"/><polygon class="cls-4" points="658.988 563.482 657.315 556.431 679.027 556.431 681.411 563.482 658.988 563.482"/><polygon class="cls-4" points="684.315 563.482 682.192 556.431 703.903 556.431 706.739 563.482 684.315 563.482"/><polygon class="cls-4" points="709.642 563.482 732.066 563.482 728.779 556.431 707.068 556.431 709.642 563.482"/><polygon class="cls-4" points="398.786 575.968 375.69 575.968 379.075 568.706 401.437 568.706 398.786 575.968"/><polygon class="cls-4" points="401.776 575.968 404.697 568.706 427.059 568.706 424.872 575.968 401.776 575.968"/><polygon class="cls-4" points="427.863 575.968 430.319 568.706 452.681 568.706 450.959 575.968 427.863 575.968"/><polygon class="cls-4" points="454.034 575.968 456.026 568.706 478.388 568.706 477.129 575.968 454.034 575.968"/><polygon class="cls-4" points="480.148 575.968 481.676 568.706 504.038 568.706 503.244 575.968 480.148 575.968"/><polygon class="cls-4" points="506.263 575.968 507.326 568.706 529.688 568.706 529.359 575.968 506.263 575.968"/><polygon class="cls-4" points="532.31 575.968 532.909 568.706 555.271 568.706 555.406 575.968 532.31 575.968"/><polygon class="cls-4" points="558.192 575.968 558.327 568.706 580.689 568.706 581.288 575.968 558.192 575.968"/><polygon class="cls-4" points="584.24 575.968 583.91 568.706 606.272 568.706 607.336 575.968 584.24 575.968"/><polygon class="cls-4" points="610.354 575.968 609.56 568.706 631.922 568.706 633.45 575.968 610.354 575.968"/><polygon class="cls-4" points="636.468 575.968 635.211 568.706 657.573 568.706 659.565 575.968 636.468 575.968"/><polygon class="cls-4" points="662.64 575.968 660.917 568.706 683.279 568.706 685.736 575.968 662.64 575.968"/><polygon class="cls-4" points="688.726 575.968 686.539 568.706 708.901 568.706 711.822 575.968 688.726 575.968"/><polygon class="cls-4" points="714.812 575.968 737.908 575.968 734.523 568.706 712.161 568.706 714.812 575.968"/><polygon class="cls-4" points="393.182 588.706 369.283 588.706 372.785 581.192 395.925 581.192 393.182 588.706"/><polygon class="cls-4" points="396.277 588.706 399.299 581.192 422.439 581.192 420.176 588.706 396.277 588.706"/><polygon class="cls-4" points="423.271 588.706 425.812 581.192 448.952 581.192 447.17 588.706 423.271 588.706"/><polygon class="cls-4" points="450.352 588.706 452.413 581.192 475.553 581.192 474.251 588.706 450.352 588.706"/><polygon class="cls-4" points="477.375 588.706 478.955 581.192 502.096 581.192 501.274 588.706 477.375 588.706"/><polygon class="cls-4" points="607.886 581.192 584.746 581.192 581.414 581.192 558.274 581.192 555.111 581.192 531.971 581.192 505.498 581.192 504.398 588.706 531.351 588.706 555.251 588.706 558.134 588.706 582.034 588.706 585.087 588.706 608.987 588.706 607.886 581.192"/><polygon class="cls-4" points="612.11 588.706 611.289 581.192 634.429 581.192 636.009 588.706 612.11 588.706"/><polygon class="cls-4" points="639.134 588.706 637.831 581.192 660.972 581.192 663.033 588.706 639.134 588.706"/><polygon class="cls-4" points="666.215 588.706 664.432 581.192 687.572 581.192 690.114 588.706 666.215 588.706"/><polygon class="cls-4" points="693.209 588.706 690.946 581.192 714.086 581.192 717.108 588.706 693.209 588.706"/><polygon class="cls-4" points="720.202 588.706 744.102 588.706 740.599 581.192 717.459 581.192 720.202 588.706"/><ellipse class="cls-3" cx="849.487" cy="587.918" rx="28.196" ry="44.634" transform="translate(-84.408 1029.638) rotate(-60)"/><path class="cls-4" d="M887.687,598.008h-0.013a5.5,5.5,0,0,1-.686,1.789,0.013,0.013,0,0,1-.013.013c-8.084,13.087-51.217,5.609-56.019-5.958-0.417-1.009-.834-1.937-1.224-2.8-5.985-12.858-9.791-9.28-20.3-18a10.178,10.178,0,0,1-1.224-1.17c-0.04-.053-0.094-0.094-0.135-0.148-5.918-6.738,1.359-15.333,1.359-15.333q0.666-.524,1.331-1.009v-0.013a34.022,34.022,0,0,1,10.868-5.3,30.939,30.939,0,0,1,5.138-1C857.533,545.6,890.512,584.707,887.687,598.008Z"/><path class="cls-5" d="M886.975,599.811c-8.084,13.087-51.217,5.609-56.019-5.958-0.417-1.009-.834-1.937-1.224-2.8-6.026-12.8-10.114-8.917-20.3-18-0.443-.39-0.847-0.78-1.224-1.17-0.04-.053-0.094-0.094-0.135-0.148-5.918-6.738,1.359-15.333,1.359-15.333q0.666-.524,1.331-1.009c-0.86,2.488-1.681,8.11,5.138,13.571a23.476,23.476,0,0,0,5.313,3.08c1.493,0.645,4.492,2.918,9.845,10.383,8.567,11.93,7.4,13.45,26.4,18.655C876.04,606.186,886.517,600.08,886.975,599.811Z"/><path class="cls-5" d="M840.479,559.556c-11-9.128-18.843-9.468-18.843-9.468a30.939,30.939,0,0,1,5.138-1A27.643,27.643,0,0,1,840.479,559.556Z"/><path class="cls-4" d="M279.838,162.494c-18.45,1.885-19.977,3.412-21.862,21.862-1.885-18.45-3.412-19.978-21.862-21.862,18.45-1.884,19.977-3.412,21.862-21.862C259.861,159.082,261.388,160.61,279.838,162.494Z"/><path class="cls-4" d="M859.314,412.548c-18.45,1.885-19.977,3.412-21.862,21.862-1.885-18.45-3.412-19.978-21.862-21.862,18.45-1.884,19.978-3.412,21.862-21.862C839.337,409.136,840.864,410.663,859.314,412.548Z"/><path class="cls-27" d="M784.069,194.635c-19.751-.242-32.252-2.655-72.266,6.388-0.087.018-.173,0.037-0.263,0.063,0.079-.052.152-0.1,0.225-0.152,34.175-22.692,41.064-33.4,54.53-47.85,13.527-14.514,36.986-15.821,36.986-15.821l10.432,20.062,0.038,0.09,7.3,21.4S803.908,194.876,784.069,194.635Z"/><path class="cls-28" d="M745.119,186.722a205.74,205.74,0,0,0,21.274-21.307c1.968-2.2,4-4.471,6.163-6.788,7.1-7.62,24.6-13.211,31.309-14.474l6.025,14.085,6.194,14.481c-5.538,3.982-21.247,13.691-31.7,13.564-3.167-.039-6.216-0.137-9.164-0.231A205.562,205.562,0,0,0,745.119,186.722Z"/><path class="cls-29" d="M764.2,178.559c3.473-3.253,6.615-6.359,9.713-9.42l0.037-.037c2.376-2.347,4.832-4.774,7.4-7.224,4.831-4.609,16.307-9.408,24.887-12.179l7.536,17.618c-8.468,4.927-19.423,10.071-25.665,10.361-3.55.165-7.009,0.265-10.353,0.362h-0.04C773.363,178.167,768.95,178.294,764.2,178.559Z"/><path class="cls-23" d="M841.144,100.3a34.717,34.717,0,0,0-12.6-3.55c-22.7-2.394-52.34,10.514-52.34,10.514a0.03,0.03,0,0,1,0-.011c-0.082-.6-3.254-25.572,21.849-45.707C811.227,50.983,827.13,48.116,839.4,47.807a4.609,4.609,0,0,1,4.5,2.845,5,5,0,0,1,.07,3.79A4.663,4.663,0,0,1,841.39,57l33.542,3.57,25.115,2.672h0.011C878.763,84.1,841.144,100.3,841.144,100.3Z"/><path class="cls-16" d="M776.206,107.252c-0.082-.6-3.254-25.572,21.849-45.707C811.227,50.983,827.13,48.116,839.4,47.807a4.609,4.609,0,0,1,4.5,2.845,5,5,0,0,1,.07,3.79q-1.2,1.242-2.574,2.556s-26.593,2.28-45.372,19.408C777.534,93.265,776.243,106.833,776.206,107.252Z"/><path class="cls-16" d="M841.144,100.3a34.717,34.717,0,0,0-12.6-3.55c12.659-16,30.914-28.03,46.386-36.181l25.115,2.672h0.011C878.763,84.1,841.144,100.3,841.144,100.3Z"/><path class="cls-23" d="M873.937,176.962a34.717,34.717,0,0,1-6.134,11.562c-13.948,18.072-43.753,30.589-43.753,30.589l0.007,0.008c0.379,0.476,16.246,20.014,48.145,15.767,16.736-2.231,29.793-11.752,38.489-20.411a4.609,4.609,0,0,0,1.048-5.216,5,5,0,0,0-2.693-2.668,4.662,4.662,0,0,0-3.626.1L926,179.968l15.414-20.008,0.008-.007C911.635,160.945,873.937,176.962,873.937,176.962Z"/><path class="cls-16" d="M824.058,219.121c0.379,0.476,16.246,20.014,48.145,15.767,16.736-2.231,29.793-11.752,38.489-20.411a4.609,4.609,0,0,0,1.048-5.216,5,5,0,0,0-2.693-2.668q-1.729.012-3.626,0.1s-20.015,17.656-45.372,19.408C835.091,227.821,824.386,219.384,824.058,219.121Z"/><path class="cls-16" d="M873.937,176.962a34.717,34.717,0,0,1-6.134,11.562c20.313,1.894,41.622-3,58.2-8.556l15.414-20.008,0.008-.007C911.635,160.945,873.937,176.962,873.937,176.962Z"/><path class="cls-4" d="M938.351,161a250.106,250.106,0,0,1-25.073,9.583,148.354,148.354,0,0,1-25.616,5.321c-0.318.042-.636,0.074-0.953,0.091l-16.079.95L852.865,178l-33.8,2L800.96,137.661l2.816-2.618L825.747,114.6l13.026-12.123a200.375,200.375,0,0,1,56.5-37.184c0.595-.258,1.2-0.52,1.8-0.778,28.81-12.323,54.621-17.25,76.313-18.307q2.319-.113,4.572-0.169,5.411-.132,10.445.035,2.172,0.067,4.264.183c0.714,0.038,1.418.08,2.117,0.127a168.6,168.6,0,0,1,23.645,3.23,139.2,139.2,0,0,1,18.669,5.254,8.309,8.309,0,0,1,4.934,11.535,155.331,155.331,0,0,1-23.089,36.459q-0.74.887-1.507,1.779-1.358,1.588-2.8,3.194-3.359,3.737-7.187,7.555-1.549,1.546-3.185,3.1C988.524,133.434,967.142,148.687,938.351,161Z"/><path class="cls-30" d="M836.739,178.947l-17.672,1.046q-1.917-2.414-3.649-4.885-1.466-2.092-2.795-4.232a82.043,82.043,0,0,1-7.688-15.767,74.14,74.14,0,0,1-3.975-17.448L813.921,125.6a116.286,116.286,0,0,0,5.473,21.866,112.372,112.372,0,0,0,11.714,23.565q1.21,1.86,2.5,3.686Q835.117,176.856,836.739,178.947Z"/><path class="cls-5" d="M804.936,155.109a74.14,74.14,0,0,1-3.975-17.448L813.921,125.6l11.826-11,13.026-12.123a200.375,200.375,0,0,1,56.5-37.184c0.595-.258,1.2-0.52,1.8-0.778,38.986-16.676,72.484-19.81,97.712-18.13a168.6,168.6,0,0,1,23.645,3.23c-1.306,6.035.812,7.654-10.019,14.13,0,0-70.314-8.794-119.8,22.818-45.331,28.959-27.893,39.078-27.893,39.078l-41.329,21.83Z"/><path class="cls-23" d="M790.268,170.026a2.714,2.714,0,0,1-1.991-4.654c32.958-32.186,102.185-49.876,130.682-56.039a2.707,2.707,0,0,1,2.092,4.89C896.913,130.575,836.307,168.421,790.268,170.026Z"/><path class="cls-16" d="M922.028,110.912l-134.35,57.468a2.682,2.682,0,0,1,.6-3.009c32.958-32.186,102.185-49.876,130.682-56.039A2.644,2.644,0,0,1,922.028,110.912Z"/><circle class="cls-31" cx="957.399" cy="95.783" r="25.771" transform="translate(39.48 384.247) rotate(-23.159)"/><path class="cls-23" d="M965.414,114.523c-0.081.035-.166,0.071-0.249,0.1a20.4,20.4,0,0,1-26.4-10.58c-0.038-.08-0.075-0.165-0.109-0.246A20.392,20.392,0,1,1,965.414,114.523Z"/><path class="cls-8" d="M970.2,111.647a20.384,20.384,0,0,0-20.818-34.6q-0.775.332-1.5,0.718a20.39,20.39,0,0,1,19.237,35.2,19.956,19.956,0,0,1-3.279,2.152c0.445-.144.888-0.313,1.326-0.492,0.083-.031.168-0.068,0.249-0.1A20.326,20.326,0,0,0,970.2,111.647Z"/><path class="cls-32" d="M972.247,96.43s-4.37,10.788-14.059,12.23c-10.609,1.578-15.677-5.833-16.912-15.485,0,0-3.265,8.9,5.364,16.674C955.646,117.963,970.677,111.248,972.247,96.43Z"/><path class="cls-23" d="M1018.948,102.861a177.987,177.987,0,0,1-24.159-56.478,155.324,155.324,0,0,1,42.314,8.484,8.4,8.4,0,0,1,5.548,6.046,8.811,8.811,0,0,1-.614,5.489A155.331,155.331,0,0,1,1018.948,102.861Z"/><path class="cls-33" d="M1018.948,102.861a177.987,177.987,0,0,1-24.159-56.478,155.324,155.324,0,0,1,42.314,8.484,8.4,8.4,0,0,1,5.548,6.046c-1.623-.768-13.412-6.029-23.021-1.919C1009.284,63.42,1005.955,80.616,1018.948,102.861Z"/></svg>